# xmcd CD database file
#
# Track frame offsets:
#	150
#	16713
#	27820
#	40715
#	57514
#	70706
#	83289
#	93166
#	107727
#	120914
#	138132
#	154756
#
# Disc length: 2283 seconds
#
# Revision: 0
# Processed by: cddbd v1.5.1PL0 Copyright (c) Steve Scherf et al.
# Submitted via: CDex 1.51
#
DISCID=7c08e90c
DTITLE=Cowboy-Laila - Sigøyner-Cowboy
DYEAR=2005
DGENRE=Country
TTITLE0=Sigøyner Cowboy
TTITLE1=Et lite brev
TTITLE2=Rosa Cadillac
TTITLE3=El Salvador
TTITLE4=Bæssmor på Harley
TTITLE5=Filledokka
TTITLE6=Alberta
TTITLE7=Gamle gubber svinger bæst
TTITLE8=Gamlehjemsblues
TTITLE9=Stjerner som faller
TTITLE10=Gypsy-Cowboy
TTITLE11=El Salvador   (Engelsk versjon)
EXTD=YEAR: 2005
EXTT0=
EXTT1=
EXTT2=
EXTT3=
EXTT4=
EXTT5=
EXTT6=
EXTT7=
EXTT8=
EXTT9=
EXTT10=
EXTT11=
PLAYORDER=
